<svg width="26" height="26" viewBox="0 0 26 26" fill="none" xmlns="http://www.w3.org/2000/svg">
<path d="M13.0007 13.0005C13.9857 13.0005 14.9305 12.6091 15.627 11.9126C16.3236 11.216 16.7149 10.2713 16.7149 9.28618V6.80999C16.7149 5.8249 16.3236 4.88016 15.627 4.18359C14.9305 3.48703 13.9857 3.0957 13.0007 3.0957C12.0156 3.0957 11.0708 3.48703 10.3743 4.18359C9.67769 4.88016 9.28637 5.8249 9.28637 6.80999V9.28618C9.28637 10.2713 9.67769 11.216 10.3743 11.9126C11.0708 12.6091 12.0156 13.0005 13.0007 13.0005ZM13.0007 13.0005C17.1037 13.0005 21.6673 15.5819 21.6673 19.5277V20.429C21.6673 20.7574 21.5369 21.0723 21.3047 21.3045C21.0725 21.5367 20.7576 21.6671 20.4292 21.6671H5.57208C5.24372 21.6671 4.9288 21.5367 4.69661 21.3045C4.46443 21.0723 4.33398 20.7574 4.33398 20.429V19.5277C4.33398 15.5819 8.8976 13.0005 13.0007 13.0005Z" stroke="#212121" stroke-width="2" stroke-linecap="round" stroke-linejoin="round"/>
</svg>
