<svg width="35" height="35" viewBox="0 0 35 35" fill="none" xmlns="http://www.w3.org/2000/svg">
<path d="M4.375 18.959C9.625 7.29232 25.375 7.29232 30.625 18.959" stroke="#212121" stroke-linecap="round" stroke-linejoin="round"/>
<path d="M17.5 24.793C16.9255 24.793 16.3566 24.6798 15.8258 24.4599C15.295 24.2401 14.8127 23.9178 14.4064 23.5116C14.0002 23.1053 13.6779 22.623 13.458 22.0922C13.2382 21.5614 13.125 20.9925 13.125 20.418C13.125 19.8434 13.2382 19.2745 13.458 18.7437C13.6779 18.2129 14.0002 17.7306 14.4064 17.3244C14.8127 16.9181 15.295 16.5959 15.8258 16.376C16.3566 16.1561 16.9255 16.043 17.5 16.043C18.6603 16.043 19.7731 16.5039 20.5936 17.3244C21.4141 18.1448 21.875 19.2576 21.875 20.418C21.875 21.5783 21.4141 22.6911 20.5936 23.5116C19.7731 24.332 18.6603 24.793 17.5 24.793Z" stroke="#212121" stroke-linecap="round" stroke-linejoin="round"/>
</svg>
