<svg width="149" height="30" viewBox="0 0 149 30" fill="none" xmlns="http://www.w3.org/2000/svg">
<path d="M148.999 15.0102C148.999 16.384 148.815 17.7106 148.446 18.99C148.091 20.256 147.586 21.4479 146.931 22.5658C146.276 23.6702 145.484 24.6803 144.556 25.5961C143.627 26.5119 142.603 27.2998 141.484 27.9597C140.365 28.6062 139.156 29.1045 137.859 29.4547C136.563 29.8183 135.218 30.0001 133.825 30.0001C132.433 30.0001 131.088 29.8183 129.791 29.4547C128.508 29.1045 127.3 28.6062 126.167 27.9597C125.047 27.2998 124.023 26.5119 123.095 25.5961C122.167 24.6803 121.368 23.6702 120.699 22.5658C120.044 21.4479 119.532 20.256 119.163 18.99C118.808 17.7106 118.631 16.384 118.631 15.0102C118.631 13.6365 118.808 12.3099 119.163 11.0304C119.532 9.75097 120.044 8.55905 120.699 7.45467C121.368 6.35029 122.167 5.34019 123.095 4.42437C124.023 3.50854 125.047 2.7274 126.167 2.08093C127.3 1.43447 128.508 0.93615 129.791 0.585982C131.088 0.222346 132.433 0.0405273 133.825 0.0405273C135.218 0.0405273 136.563 0.222346 137.859 0.585982C139.156 0.93615 140.365 1.43447 141.484 2.08093C142.603 2.7274 143.627 3.50854 144.556 4.42437C145.484 5.34019 146.276 6.35029 146.931 7.45467C147.586 8.55905 148.091 9.75097 148.446 11.0304C148.815 12.3099 148.999 13.6365 148.999 15.0102ZM143.163 15.0102C143.163 13.7442 142.917 12.5523 142.426 11.4345C141.935 10.3032 141.266 9.32672 140.419 8.50517C139.586 7.67016 138.597 7.01022 137.45 6.52538C136.317 6.04053 135.109 5.7981 133.825 5.7981C132.528 5.7981 131.313 6.04053 130.18 6.52538C129.047 7.01022 128.057 7.67016 127.211 8.50517C126.365 9.32672 125.696 10.3032 125.204 11.4345C124.713 12.5523 124.467 13.7442 124.467 15.0102C124.467 16.2762 124.713 17.4681 125.204 18.586C125.696 19.6904 126.365 20.6601 127.211 21.4951C128.057 22.3301 129.047 22.99 130.18 23.4749C131.313 23.9597 132.528 24.2021 133.825 24.2021C135.109 24.2021 136.317 23.9597 137.45 23.4749C138.597 22.99 139.586 22.3301 140.419 21.4951C141.266 20.6601 141.935 19.6904 142.426 18.586C142.917 17.4681 143.163 16.2762 143.163 15.0102Z" fill="#6DEDC2"/>
<path d="M96.6505 6.20179V17.7977H102.528C103.333 17.7977 104.091 17.6496 104.801 17.3533C105.511 17.0435 106.132 16.626 106.664 16.1008C107.197 15.5755 107.613 14.9627 107.913 14.2624C108.227 13.5486 108.384 12.7944 108.384 11.9998C108.384 11.2052 108.227 10.4577 107.913 9.75734C107.613 9.04354 107.197 8.42401 106.664 7.89876C106.132 7.37351 105.511 6.96273 104.801 6.66643C104.091 6.35667 103.333 6.20179 102.528 6.20179H96.6505ZM96.6505 29.3735H90.7734V0.403809H102.528C103.606 0.403809 104.644 0.545223 105.64 0.828051C106.637 1.09741 107.565 1.48798 108.425 1.99977C109.299 2.49808 110.091 3.10415 110.801 3.81795C111.524 4.51829 112.139 5.29943 112.644 6.16138C113.162 7.02334 113.558 7.9459 113.831 8.92906C114.118 9.91223 114.261 10.9358 114.261 11.9998C114.261 12.9964 114.132 13.9661 113.872 14.9089C113.627 15.8516 113.265 16.7472 112.787 17.5957C112.323 18.4442 111.749 19.2254 111.067 19.9392C110.384 20.653 109.62 21.2725 108.773 21.7977L112.029 29.3735H105.784L103.224 23.5351L96.6505 23.5755V29.3735Z" fill="#6DEDC2"/>
<path d="M83.2091 29.3735H77.332V0.403809H83.2091V29.3735Z" fill="#6DEDC2"/>
<path d="M69.9715 29.3737H64.1149V8.68687C64.1149 8.28283 64.033 7.90572 63.8692 7.55556C63.719 7.20539 63.5074 6.90236 63.2344 6.64646C62.975 6.3771 62.6678 6.16835 62.3129 6.0202C61.9579 5.87205 61.5757 5.79798 61.1661 5.79798C60.7566 5.79798 60.3743 5.87205 60.0194 6.0202C59.6644 6.16835 59.3504 6.3771 59.0774 6.64646C58.818 6.90236 58.6132 7.20539 58.4631 7.55556C58.3129 7.90572 58.2378 8.28283 58.2378 8.68687V29.3737H52.3607V8.68687C52.3607 8.28283 52.2856 7.90572 52.1354 7.55556C51.9853 7.20539 51.7737 6.90236 51.5006 6.64646C51.2412 6.3771 50.9341 6.16835 50.5791 6.0202C50.2242 5.87205 49.8419 5.79798 49.4324 5.79798C49.0228 5.79798 48.6406 5.87205 48.2856 6.0202C47.9307 6.16835 47.6167 6.3771 47.3436 6.64646C47.0843 6.90236 46.8795 7.20539 46.7293 7.55556C46.5791 7.90572 46.5041 8.28283 46.5041 8.68687V29.3737H40.627V8.68687C40.627 7.48822 40.8522 6.36364 41.3027 5.31313C41.7669 4.24916 42.3949 3.3266 43.1867 2.54545C43.9921 1.75084 44.9273 1.13131 45.9921 0.686869C47.0706 0.228956 48.2174 0 49.4324 0C50.5245 0 51.5757 0.195286 52.5859 0.585859C53.5962 0.962963 54.504 1.51515 55.3095 2.24242C56.1149 1.51515 57.016 0.962963 58.0125 0.585859C59.0228 0.195286 60.074 0 61.1661 0C62.3811 0 63.521 0.228956 64.5859 0.686869C65.6644 1.13131 66.5995 1.75084 67.3913 2.54545C68.1968 3.3266 68.8248 4.24916 69.2753 5.31313C69.7395 6.36364 69.9715 7.48822 69.9715 8.68687V29.3737Z" fill="#6DEDC2"/>
<path d="M0 17.0352C-7.06266e-07 13.1466 2.11968 10.2807 5.17339 9.25009C7.99153 8.299 11.3571 9.06063 13.3856 11.6115C14.1067 12.4629 14.799 12.4429 15.1018 12.3406C15.2776 12.2813 15.4563 12.1623 15.607 11.9379C15.7579 11.7133 15.9394 11.2903 15.9394 10.5706C15.9394 5.23725 20.1296 2.47103e-06 25.8572 0H29.7535V6.1152H26.0344C25.1488 6.1152 22.1381 6.95506 22.1381 10.5706C22.1381 14.1861 20.1774 17.0901 17.1091 18.1262C14.1153 19.1371 10.7858 18.1127 8.58974 15.4866L8.55325 15.4431L8.51848 15.3982C8.23819 15.0366 7.70009 14.8603 7.17965 15.036C6.95183 15.1129 6.74048 15.2575 6.57241 15.5021C6.4061 15.7442 6.19866 16.2091 6.19866 17.0352V29.0909H0V17.0352Z" fill="#6DEDC2"/>
<path d="M29.7533 7.60059L29.7533 29.0911L23.5547 29.0911L23.5547 13.7992C23.5547 10.3758 26.3299 7.60059 29.7533 7.60059Z" fill="#C9EEE2"/>
</svg>
