<svg width="197" height="264" viewBox="0 0 197 264" fill="none" xmlns="http://www.w3.org/2000/svg">
<path d="M196.861 236.782C196.861 239.276 196.531 241.685 195.872 244.008C195.237 246.307 194.333 248.471 193.16 250.501C191.987 252.506 190.571 254.34 188.909 256.003C187.248 257.666 185.416 259.097 183.413 260.295C181.409 261.469 179.247 262.374 176.927 263.01C174.606 263.67 172.199 264 169.708 264C167.216 264 164.81 263.67 162.489 263.01C160.192 262.374 158.03 261.469 156.003 260.295C153.999 259.097 152.167 257.666 150.506 256.003C148.845 254.34 147.416 252.506 146.219 250.501C145.046 248.471 144.13 246.307 143.47 244.008C142.835 241.685 142.518 239.276 142.518 236.782C142.518 234.288 142.835 231.879 143.47 229.556C144.13 227.232 145.046 225.068 146.219 223.063C147.416 221.058 148.845 219.223 150.506 217.561C152.167 215.898 153.999 214.479 156.003 213.305C158.03 212.132 160.192 211.227 162.489 210.591C164.81 209.931 167.216 209.601 169.708 209.601C172.199 209.601 174.606 209.931 176.927 210.591C179.247 211.227 181.409 212.132 183.413 213.305C185.416 214.479 187.248 215.898 188.909 217.561C190.571 219.223 191.987 221.058 193.16 223.063C194.333 225.068 195.237 227.232 195.872 229.556C196.531 231.879 196.861 234.288 196.861 236.782ZM186.417 236.782C186.417 234.483 185.978 232.319 185.098 230.289C184.219 228.235 183.022 226.462 181.507 224.97C180.017 223.454 178.246 222.256 176.194 221.375C174.166 220.495 172.004 220.055 169.708 220.055C167.387 220.055 165.213 220.495 163.185 221.375C161.157 222.256 159.386 223.454 157.872 224.97C156.357 226.462 155.16 228.235 154.28 230.289C153.401 232.319 152.961 234.483 152.961 236.782C152.961 239.081 153.401 241.245 154.28 243.275C155.16 245.28 156.357 247.041 157.872 248.557C159.386 250.073 161.157 251.271 163.185 252.152C165.213 253.032 167.387 253.472 169.708 253.472C172.004 253.472 174.166 253.032 176.194 252.152C178.246 251.271 180.017 250.073 181.507 248.557C183.022 247.041 184.219 245.28 185.098 243.275C185.978 241.245 186.417 239.081 186.417 236.782Z" fill="#6DEDC2"/>
<path d="M103.183 220.789V241.844H113.7C115.141 241.844 116.497 241.575 117.767 241.037C119.038 240.475 120.149 239.717 121.102 238.763C122.055 237.809 122.8 236.697 123.337 235.425C123.899 234.129 124.18 232.759 124.18 231.317C124.18 229.874 123.899 228.517 123.337 227.245C122.8 225.949 122.055 224.824 121.102 223.87C120.149 222.917 119.038 222.171 117.767 221.633C116.497 221.07 115.141 220.789 113.7 220.789H103.183ZM103.183 262.863H92.666V210.261H113.7C115.63 210.261 117.486 210.518 119.27 211.032C121.053 211.521 122.714 212.23 124.253 213.159C125.817 214.064 127.234 215.164 128.504 216.46C129.799 217.732 130.898 219.15 131.802 220.716C132.73 222.281 133.439 223.956 133.928 225.741C134.441 227.526 134.697 229.385 134.697 231.317C134.697 233.126 134.465 234.887 134.001 236.599C133.561 238.311 132.914 239.937 132.059 241.478C131.228 243.018 130.202 244.437 128.981 245.733C127.759 247.029 126.391 248.154 124.876 249.107L130.703 262.863H119.526L114.946 252.262L103.183 252.335V262.863Z" fill="#6DEDC2"/>
<path d="M79.1302 262.863H68.6133V210.261H79.1302V262.863Z" fill="#6DEDC2"/>
<path d="M55.443 262.863H44.9627V225.301C44.9627 224.567 44.8161 223.882 44.523 223.246C44.2542 222.611 43.8756 222.06 43.387 221.596C42.9228 221.107 42.3732 220.728 41.738 220.459C41.1028 220.19 40.4188 220.055 39.6859 220.055C38.953 220.055 38.269 220.19 37.6338 220.459C36.9987 220.728 36.4368 221.107 35.9482 221.596C35.484 222.06 35.1176 222.611 34.8489 223.246C34.5801 223.882 34.4458 224.567 34.4458 225.301V262.863H23.9289V225.301C23.9289 224.567 23.7945 223.882 23.5258 223.246C23.257 222.611 22.8784 222.06 22.3898 221.596C21.9256 221.107 21.376 220.728 20.7408 220.459C20.1056 220.19 19.4216 220.055 18.6887 220.055C17.9558 220.055 17.2718 220.19 16.6366 220.459C16.0015 220.728 15.4396 221.107 14.951 221.596C14.4868 222.06 14.1204 222.611 13.8517 223.246C13.5829 223.882 13.4486 224.567 13.4486 225.301V262.863H2.93164V225.301C2.93164 223.124 3.33473 221.082 4.1409 219.175C4.97151 217.243 6.09527 215.568 7.51218 214.149C8.95353 212.706 10.627 211.582 12.5325 210.775C14.4624 209.943 16.5145 209.527 18.6887 209.527C20.6431 209.527 22.5241 209.882 24.3319 210.591C26.1397 211.276 27.7643 212.278 29.2056 213.599C30.647 212.278 32.2593 211.276 34.0427 210.591C35.8505 209.882 37.7316 209.527 39.6859 209.527C41.8601 209.527 43.9 209.943 45.8055 210.775C47.7355 211.582 49.4089 212.706 50.8258 214.149C52.2671 215.568 53.3909 217.243 54.1971 219.175C55.0277 221.082 55.443 223.124 55.443 225.301V262.863Z" fill="#6DEDC2"/>
<path d="M0 114.448C-4.67623e-06 88.3232 14.0345 69.069 34.2533 62.145C52.9124 55.7552 75.1958 60.8721 88.6266 78.0099C93.401 83.7293 97.9847 83.5951 99.9898 82.9081C101.154 82.5093 102.337 81.7102 103.335 80.2028C104.334 78.6937 105.536 75.8516 105.536 71.0163C105.536 35.1855 133.279 1.66012e-05 171.202 0H197V41.0838H172.375C166.512 41.0838 146.577 46.7262 146.577 71.0163C146.577 95.3063 133.596 114.817 113.28 121.777C93.4584 128.569 71.4135 121.686 56.8732 104.044L56.6315 103.751L56.4014 103.45C54.5456 101.021 50.9828 99.8363 47.5369 101.016C46.0285 101.533 44.6291 102.505 43.5163 104.148C42.4151 105.774 41.0417 108.898 41.0417 114.448V195.441H0V114.448Z" fill="#6DEDC2"/>
<path d="M197.001 51.061L197.001 195.441L155.959 195.441L155.959 66.061C155.959 57.7767 162.675 51.061 170.959 51.061L197.001 51.061Z" fill="#C9EEE2"/>
</svg>
