<svg width="26" height="26" viewBox="0 0 26 26" fill="none" xmlns="http://www.w3.org/2000/svg">
<path d="M10.0742 13.975H15.9242M10.0742 17.875H12.9992M5.19922 5.2V20.8C5.19922 21.3172 5.40466 21.8132 5.77036 22.1789C6.13606 22.5446 6.63205 22.75 7.14922 22.75H18.8492C19.3664 22.75 19.8624 22.5446 20.2281 22.1789C20.5938 21.8132 20.7992 21.3172 20.7992 20.8V9.43345C20.7992 9.17367 20.7472 8.91652 20.6465 8.67709C20.5457 8.43766 20.398 8.22079 20.2123 8.0392L15.8833 3.80575C15.519 3.44954 15.0297 3.25006 14.5202 3.25H7.14922C6.63205 3.25 6.13606 3.45545 5.77036 3.82114C5.40466 4.18684 5.19922 4.68283 5.19922 5.2Z" stroke="#212121" stroke-width="2" stroke-linecap="round" stroke-linejoin="round"/>
<path d="M14.9492 3.25V7.15C14.9492 7.66717 15.1547 8.16316 15.5204 8.52886C15.8861 8.89455 16.382 9.1 16.8992 9.1H20.7992" stroke="#212121" stroke-width="2" stroke-linejoin="round"/>
</svg>
