<svg width="30" height="30" viewBox="0 0 30 30" fill="none" xmlns="http://www.w3.org/2000/svg">
<path d="M23.4376 12.1375V11.2563C23.4376 6.42 19.6576 2.5 15.0001 2.5C10.3426 2.5 6.56258 6.42 6.56258 11.2563V12.1375C6.56408 13.1894 6.26388 14.2198 5.69758 15.1063L4.31258 17.2625C3.04883 19.2313 4.01383 21.9075 6.21258 22.53C11.9579 24.1571 18.0422 24.1571 23.7876 22.53C25.9863 21.9075 26.9513 19.2312 25.6876 17.2637L24.3026 15.1075C23.7358 14.2211 23.4352 13.1908 23.4363 12.1388L23.4376 12.1375Z" stroke="#59D9A4" stroke-width="1.5"/>
<path d="M9.375 23.75C10.1937 25.935 12.4025 27.5 15 27.5C17.5975 27.5 19.8063 25.935 20.625 23.75" stroke="#59D9A4" stroke-width="1.5" stroke-linecap="round"/>
</svg>
